<svg xmlns="http://www.w3.org/2000/svg" width="20" height="24.086" viewBox="0 0 20 24.086"><path d="M17.338-9.569,5.94,1.829a.538.538,0,0,1-.86,0l-11.4-11.4a.538.538,0,0,1,0-.86l.43-.43a.593.593,0,0,1,.914,0L5.51-.322,16.047-10.859a.538.538,0,0,1,.86,0l.43.43A.538.538,0,0,1,17.338-9.569Zm0,6.022q.43.43-.054.914L5.94,8.711a.593.593,0,0,1-.914,0L-6.318-2.633a.593.593,0,0,1,0-.914l.43-.43a.538.538,0,0,1,.86,0L5.51,6.56,15.994-3.977a.593.593,0,0,1,.914,0Z" transform="translate(8.926 6.533) rotate(90)"/></svg>