<svg xmlns="http://www.w3.org/2000/svg" width="18.628" height="25" viewBox="0 0 18.628 25"><path d="M2.095-10.141a1.322,1.322,0,0,0-.488-.113A1.189,1.189,0,0,0,.551-9.5a11.526,11.526,0,0,0-.5,3.069c0,.3.028.8.063,1.1a1.139,1.139,0,0,0,1.106.991,1.337,1.337,0,0,0,.271-.034l5.25-1.309a1.116,1.116,0,0,0,.22-2.085ZM4.243,1.542A11.582,11.582,0,0,0,8.121,3.109a1.336,1.336,0,0,0,.188.016A1.121,1.121,0,0,0,9.421,2.051l.19-5.411a1.116,1.116,0,0,0-1.944-.786L4.044-.123a1.288,1.288,0,0,0-.286.745,1.247,1.247,0,0,0,.485.92Zm7.1-5.367L14.211.764a1.245,1.245,0,0,0,.948.524,1.3,1.3,0,0,0,.712-.256,11.518,11.518,0,0,0,2.574-3.3,1.335,1.335,0,0,0,.105-.474,1.2,1.2,0,0,0-.769-1.066L12.634-5.481A1.119,1.119,0,0,0,11.34-3.826Zm7.243-6.457a11.463,11.463,0,0,0-2.461-3.384,1.292,1.292,0,0,0-.735-.277,1.247,1.247,0,0,0-.925.491L11.434-8.963a1.114,1.114,0,0,0,1.23,1.695l5.207-1.49a1.19,1.19,0,0,0,.806-1.077,1.338,1.338,0,0,0-.093-.447ZM3.033-20.4A1.219,1.219,0,0,0,2.4-19.4a1.318,1.318,0,0,0,.149.557l5.084,8.811a1.115,1.115,0,0,0,2.081-.557V-20.758s0-.007,0-.01a1.107,1.107,0,0,0-1.107-1.107c-.025,0-.065,0-.089,0A18.688,18.688,0,0,0,3.033-20.4Z" transform="translate(-0.049 21.875)" fill="#d6ab49"/></svg>