<svg xmlns="http://www.w3.org/2000/svg" width="35.351" height="18.237" viewBox="0 0 35.351 18.237"><g transform="translate(-0.001)"><path d="M28.148,13.105q-1.815,0-3.628,0c-.313,0-.318-.006-.189-.292.278-.615.565-1.225.837-1.843a.342.342,0,0,1,.371-.224c.525.009,1.051,0,1.575.007.209,0,.277-.071.276-.276q-.007-3.248,0-6.5c0-.226-.087-.294-.3-.287-.318.012-.637,0-.956,0-.168,0-.232-.064-.23-.234.006-.628.007-1.257,0-1.885,0-.193.082-.238.254-.237q2.448.005,4.895,0c.187,0,.244.075.242.251q-.009.928,0,1.856c0,.181-.062.254-.244.249-.319-.008-.638.009-.956,0-.222-.01-.294.074-.293.292.008,1,0,2.007,0,3.009,0,1.144.007,2.288-.005,3.432,0,.262.08.337.336.329.544-.018,1.088,0,1.631-.009.224-.005.321.053.315.3-.013.6-.011,1.2,0,1.8,0,.209-.069.271-.277.27-1.219-.009-2.438,0-3.657,0" transform="translate(-7.916 -0.438)" fill="#d6ab49"/><path d="M8.28,5.7q0,2.375,0,4.751a2.7,2.7,0,0,1-.313,1.408,1.706,1.706,0,0,1-1.479.874c-.346.017-.694,0-1.04.011a.3.3,0,0,1-.329-.2q-.327-.761-.669-1.517c-.084-.186-.061-.276.17-.267.3.011.6,0,.9,0a.369.369,0,0,0,.411-.4c.005-.112,0-.225,0-.337q.011-4.722.017-9.446c0-.264.071-.363.347-.354.552.019,1.106.017,1.658,0,.251-.007.321.084.319.324-.007,1.715,0,3.43,0,5.145H8.28" transform="translate(-1.438 -0.076)" fill="#d6ab49"/><path d="M20.621,9.4c-.412,0-.825.013-1.237,0a.912.912,0,0,1-.733-.359.752.752,0,0,1-.073-.725c.209-.614.5-1.191.758-1.785.119-.275.236-.551.36-.824.073-.16.029-.222-.144-.224-.281,0-.564.005-.843-.024a.772.772,0,0,1-.734-1.124c.274-.829.709-1.591,1.048-2.393.245-.578.514-1.146.762-1.722A.315.315,0,0,1,20.125,0c.619.01,1.238.013,1.857,0,.242,0,.268.061.172.269-.379.826-.746,1.658-1.118,2.487-.177.393-.109.5.333.5.478,0,.956,0,1.435.005.335,0,.341.012.2.329q-.753,1.681-1.5,3.362c-.187.421-.135.5.315.5.282,0,.563,0,.844,0,.162,0,.23.044.152.216q-.364.792-.715,1.59a.269.269,0,0,1-.293.162c-.393,0-.787,0-1.181,0V9.4" transform="translate(-5.846)" fill="#d6ab49"/><path d="M13.681,4.828c.291,0,.582.011.872,0,.22-.011.292.077.307.288.072,1.019.147,2.038.241,3.055a7.418,7.418,0,0,0,.294,2.218.286.286,0,0,1-.041.24c-.343.76-.693,1.518-1.027,2.282-.108.247-.177.195-.3.015a7.087,7.087,0,0,1-1.16-3.4c-.145-1.454-.232-2.914-.355-4.371-.02-.242.039-.347.3-.331.29.018.581,0,.872,0" transform="translate(-4.083 -1.574)" fill="#d6ab49"/><path d="M1.743,4.83c.319,0,.638,0,.956,0,.158,0,.22.067.205.224-.16,1.679-.187,3.371-.439,5.042A6.562,6.562,0,0,1,1.4,12.91c-.175.251-.191.25-.311-.013q-.516-1.14-1.03-2.281c-.034-.076-.081-.145-.04-.238a6.707,6.707,0,0,0,.3-2.16c.1-1.036.169-2.075.24-3.113.015-.219.108-.288.318-.278.29.014.581,0,.872,0Z" transform="translate(0.001 -1.575)" fill="#d6ab49"/><path d="M18.786,17.6a8.838,8.838,0,0,1-1.573-.06c-.387-.089-.391-.105-.23-.455.27-.587.546-1.173.808-1.764.081-.183.171-.263.384-.2a3.3,3.3,0,0,0,1.029.119c.722,0,1.444,0,2.166,0,.185,0,.238.048.154.228q-.461.98-.908,1.965a.268.268,0,0,1-.287.169c-.469-.005-.938,0-1.544,0" transform="translate(-5.511 -4.929)" fill="#d6ab49"/><path d="M49.763,3.651c-.741.005-.744.005-.74-.744a2.271,2.271,0,0,1,.06-.779,1.126,1.126,0,0,1,.985-.8,1.059,1.059,0,0,1,1.145.593A1.158,1.158,0,0,1,50.3,3.649a5.218,5.218,0,0,1-.533,0" transform="translate(-16.002 -0.43)" fill="#d6ab49"/><path d="M22.245,23.5c.089.27-.1.464-.2.673a.585.585,0,0,0,.166.777c.1.079.154.04.181-.061a1.878,1.878,0,0,0,.032-.222c.014-.1-.009-.236.149-.212.136.021.124.148.114.25a1.77,1.77,0,0,1-.053.3c-.04.141-.062.313-.242.346s-.279-.094-.378-.205c-.123-.139-.214-.387-.349-.41s-.3.181-.462.275a2.238,2.238,0,0,1-.329.157.157.157,0,0,1-.22-.061c-.053-.11.041-.15.115-.187a4.031,4.031,0,0,0,.625-.377.256.256,0,0,0,.1-.339c-.049-.121-.071-.252-.115-.376s.006-.352-.131-.41a1.088,1.088,0,0,0-.663-.015c-.216.051-.105.269-.1.411,0,.174.138.1.23.082s.2-.059.3-.086c.068-.019.135-.015.168.058a.128.128,0,0,1-.078.183,1.4,1.4,0,0,1-.346.114c-.238.032-.312.161-.285.385a2.75,2.75,0,0,1,0,.365c0,.194-.059.363-.27.407a.745.745,0,0,1-.627-.18c-.065-.052-.037-.126.045-.146a.39.39,0,0,1,.164.009c.407.084.407.086.407-.321,0-.386,0-.385-.395-.325a1.656,1.656,0,0,1-.223.022.13.13,0,0,1-.141-.11c-.018-.095.041-.141.121-.158.147-.03.3-.049.443-.073.321-.051.164-.3.191-.47s-.1-.189-.235-.186-.244,0-.366,0c-.092,0-.176-.028-.173-.137s.084-.139.176-.142a2.642,2.642,0,0,1,.365,0c.216.023.243-.092.24-.27,0-.206-.127-.146-.247-.148-.154,0-.409.126-.438-.084-.033-.24.244-.156.39-.181a8.08,8.08,0,0,0,.877-.195c.1-.028.193-.039.228.083s-.061.171-.155.187c-.26.044-.442.138-.375.455.022.1.058.154.162.149a.132.132,0,0,1,.028,0c.579.05.579.05.557-.535a1.928,1.928,0,0,1,0-.225c.007-.092.006-.205.141-.2s.135.11.141.207c.012.187.028.374.036.561.007.138.066.2.211.192.234-.009.468,0,.7,0,.19,0,.259.084.191.267-.164.084-.346.024-.517.063a.341.341,0,0,0-.28.178c.129-.166.246-.24.4-.112" transform="translate(-6.336 -7.23)" fill="#d6ab49"/><path d="M38.9,25.336c-.441,0-.881,0-1.321,0-.108,0-.255.018-.249-.148s.15-.139.26-.139c.309,0,.618-.012.927,0,.2.009.29-.044.284-.263-.017-.661.061-.543-.55-.556-.131,0-.263,0-.393,0-.1,0-.23.008-.234-.135,0-.162.133-.156.244-.157.234,0,.469-.009.7,0,.17.006.231-.061.229-.23-.009-.714.057-.553-.552-.582a.413.413,0,0,0-.467.257,1.007,1.007,0,0,1-.176.252c-.063.073-.148.137-.242.058s-.048-.159.008-.226a2.111,2.111,0,0,0,.477-1c.016-.092.067-.162.174-.139s.094.115.1.2c.007.1-.126.257.012.3a.906.906,0,0,0,.6-.014c.105-.045.044-.187.06-.286.02-.117-.064-.3.138-.308s.166.179.152.3c-.032.282.088.362.352.338.223-.02.449-.005.674,0,.112,0,.254-.01.263.141.009.172-.143.138-.249.14-.282,0-.562,0-.843,0-.127,0-.2.038-.191.174,0,.019,0,.038,0,.056,0,.705-.068.561.55.577.159,0,.319,0,.478,0,.1,0,.191.044.185.163s-.1.126-.185.127c-.271,0-.544.007-.815,0-.156,0-.208.057-.216.213-.032.6-.037.6.554.6.206,0,.412,0,.618,0,.108,0,.259-.029.261.132,0,.176-.158.154-.275.155-.45,0-.9,0-1.349,0" transform="translate(-12.18 -7.252)" fill="#d6ab49"/><path d="M12.5,24.4c0-.15,0-.3,0-.45,0-.4.038-.438.43-.442.216,0,.431-.007.647,0,.167.007.242-.059.242-.226,0-.756.065-.644-.607-.655-.206,0-.412,0-.618,0-.079,0-.154-.028-.16-.123s.078-.123.153-.123c.431,0,.862,0,1.293,0,.155,0,.215.1.216.236,0,.29,0,.581,0,.872a.268.268,0,0,1-.3.29c-.253,0-.506,0-.759,0-.174,0-.259.065-.253.25.008.271.009.544,0,.816-.005.183.073.252.251.247.244-.007.488-.009.731,0a.3.3,0,0,0,.36-.325c0-.1,0-.238.141-.234s.143.145.144.259c0,.41-.144.557-.554.557-.31,0-.619,0-.928,0-.345,0-.416-.076-.421-.411,0-.178,0-.356,0-.534" transform="translate(-4.06 -7.306)" fill="#d6ab49"/><path d="M2.4,23.768a5.77,5.77,0,0,0-.035.946c0,.141,0,.281,0,.422,0,.112,0,.255-.152.251s-.137-.151-.138-.261a10.36,10.36,0,0,0-.046-1.158c-.073.135-.142.272-.218.405-.049.085-.094.228-.217.154-.1-.057-.047-.187,0-.283.092-.2.191-.407.28-.612.041-.094.062-.2.1-.292.064-.163.034-.25-.162-.237-.079,0-.185.017-.189-.108s.1-.16.193-.151c.244.025.266-.109.271-.305,0-.139-.108-.385.115-.4.257-.016.161.244.166.391.007.187.009.339.263.314a.132.132,0,0,1,.161.149c-.01.1-.093.1-.168.11-.3.044-.3.053-.115.3.127.174.251.35.366.531.063.1.1.222-.026.294-.115.063-.158-.063-.211-.131-.072-.092-.133-.193-.228-.334" transform="translate(-0.5 -7.228)" fill="#d6ab49"/><path d="M32.208,23.753a5.8,5.8,0,0,1-.053,1.092c-.072.42-.223.539-.648.527a1.54,1.54,0,0,1-.519-.112c-.09-.034-.186-.084-.143-.2s.135-.075.218-.056c.145.032.29.073.438.092a.318.318,0,0,0,.391-.3,11.111,11.111,0,0,0,.055-1.765c0-.042-.016-.11-.045-.125a1.92,1.92,0,0,0-.771-.055c-.148-.007-.166.127-.215.224,0,.008-.007.018-.012.026-.083.117-.1.374-.311.263s.011-.257.061-.379a2.149,2.149,0,0,0,.176-.617c.009-.1.019-.2.151-.19.107.009.138.1.123.186-.035.212.088.228.248.224.187-.005.374,0,.562,0a.261.261,0,0,1,.294.294c0,.29,0,.58,0,.87" transform="translate(-9.959 -7.239)" fill="#d6ab49"/><path d="M4.472,23.712c.253,0,.505,0,.758,0,.114,0,.253,0,.252.152s-.137.125-.237.131c-.6.036-.6.036-.6.637,0,.3.007.6,0,.9a.437.437,0,0,1-.628.41c-.088-.032-.154-.076-.133-.181s.1-.106.176-.088c.238.055.294-.061.289-.273-.009-.383-.011-.767,0-1.15.006-.2-.069-.268-.261-.253-.148.012-.3,0-.449,0-.1,0-.2-.023-.192-.149.005-.108.1-.129.186-.129.281,0,.561,0,.842,0v0" transform="translate(-1.124 -7.74)" fill="#d6ab49"/><path d="M11.3,25.306c.153-.07.166-.191.22-.283.04-.069.088-.131.175-.1s.093.117.065.189a1.455,1.455,0,0,1-.436.641c-.154.122-.278.042-.292-.206-.019-.354-.011-.71-.011-1.065,0-.254.052-.537-.361-.483-.06.008-.1-.041-.11-.1-.009-.079.041-.117.108-.143.383-.148.642.023.643.423v1.131" transform="translate(-3.442 -7.737)" fill="#d6ab49"/><path d="M4.629,22.6c-.224,0-.447,0-.671,0-.088,0-.179-.015-.176-.129s.079-.145.172-.145q.7,0,1.4,0c.092,0,.174.036.178.137s-.088.135-.174.136c-.242,0-.484,0-.726,0v0" transform="translate(-1.234 -7.288)" fill="#d6ab49"/><path d="M46.9,24.812a.144.144,0,0,1,.123.2,4.1,4.1,0,0,1-.494,1.1.153.153,0,0,1-.22.059.144.144,0,0,1-.046-.2,9.656,9.656,0,0,0,.5-1.067.14.14,0,0,1,.139-.09" transform="translate(-15.095 -8.1)" fill="#d6ab49"/><path d="M4.089,24.728a3.575,3.575,0,0,1-.43.967.155.155,0,0,1-.218.069c-.085-.057-.059-.153-.015-.228a3.843,3.843,0,0,0,.4-.921c.022-.077.067-.143.16-.117s.119.108.1.23" transform="translate(-1.104 -7.996)" fill="#d6ab49"/><path d="M31.919,24.905c0,.11-.022.18-.107.2s-.12-.034-.149-.1q-.215-.469-.428-.938a.124.124,0,0,1,.042-.172.117.117,0,0,1,.172.03,4.752,4.752,0,0,1,.47.977" transform="translate(-10.19 -7.794)" fill="#d6ab49"/><path d="M6.2,25.645c0,.09-.008.161-.083.185a.127.127,0,0,1-.16-.081c-.125-.3-.245-.606-.363-.911a.12.12,0,0,1,.065-.164.123.123,0,0,1,.166.062,3.293,3.293,0,0,1,.374.909" transform="translate(-1.821 -8.051)" fill="#d6ab49"/><path d="M23.623,22.92c-.01.1-.075.184-.178.108a6.346,6.346,0,0,1-.639-.541c-.076-.073-.019-.158.086-.178a1.417,1.417,0,0,1,.731.61" transform="translate(-7.434 -7.283)" fill="#d6ab49"/><path d="M11.659,22.9a.15.15,0,0,1-.071.141.11.11,0,0,1-.15-.024c-.155-.16-.31-.319-.462-.482a.122.122,0,0,1-.025-.153.135.135,0,0,1,.14-.068,1.556,1.556,0,0,1,.567.585" transform="translate(-3.569 -7.286)" fill="#d6ab49"/><path d="M23.316,24.1c-.139-.04-.2.026-.247.154a.871.871,0,0,1-.221.392,1.246,1.246,0,0,1-.156-.508c-.02-.141.076-.148.176-.15l.843-.017c-.112.1-.279.038-.395.129" transform="translate(-7.406 -7.825)" fill="#d6ab49"/><path d="M46.966,22.906c-.025.124-.117.15-.22.081a3.94,3.94,0,0,1-.463-.354c-.094-.085-.09-.188.055-.227s.629.335.629.5" transform="translate(-15.088 -7.313)" fill="#d6ab49"/><path d="M46.328,23.629a1.282,1.282,0,0,1,.562.385.124.124,0,0,1,0,.156.129.129,0,0,1-.176.026q-.263-.155-.519-.321a.121.121,0,0,1-.051-.147c.026-.069.084-.1.185-.1" transform="translate(-15.061 -7.714)" fill="#d6ab49"/><path d="M46.966,7.351a1.853,1.853,0,0,0-.766-1.5,2.67,2.67,0,0,0-1.658-.531c-.226,0-.287-.079-.282-.3.012-.515.018-1.033,0-1.547a2.43,2.43,0,0,0-1.2-2.159A3.679,3.679,0,0,0,41.047.9c-.648.016-.656.007-.671-.629,0-.216-.092-.268-.29-.264-.5.011-.994,0-1.491,0-.569,0-.569,0-.575.581,0,.028,0,.057,0,.084.018.172-.067.232-.232.23-.366-.005-.731.006-1.1,0-.181,0-.247.062-.244.246.009.619.01,1.238,0,1.856,0,.2.078.261.266.256.328-.009.657.007.984-.006.238-.01.34.065.331.319-.015.478-.013.956,0,1.435.007.232-.074.315-.308.309-.581-.012-1.163.007-1.744-.008-.25-.006-.324.083-.318.327.015.581.013,1.163,0,1.744,0,.221.071.3.291.3.6-.009,1.2,0,1.8-.006.207,0,.278.065.275.275-.011.741,0,1.482,0,2.223s.011,1.463-.005,2.194c-.006.255.079.321.321.313.507-.017,1.013,0,1.52-.006.559,0,.517.084.517-.5q0-2.1,0-4.192c0-.135-.037-.3.189-.3,1.125,0,2.251-.011,3.376.013a.707.707,0,0,1,.721.773c.007.553.006,1.107,0,1.66,0,.389-.143.526-.527.53q-.774.008-1.548,0c-.2,0-.247.066-.164.253.234.521.457,1.048.686,1.571.042.095.086.192.217.189a10.5,10.5,0,0,0,2.1-.083,1.957,1.957,0,0,0,1.553-1.916c-.026-1.106,0-2.213-.013-3.319m-5.3-2.025c-.354-.016-.711-.009-1.066,0-.166,0-.237-.061-.238-.228q0-.8-.022-1.6c0-.167.065-.238.232-.235.327.005.655,0,.981,0a.366.366,0,0,1,.4.4c.005.243,0,.486,0,.729h0c0,.205-.011.412,0,.617.016.224-.053.323-.3.313" transform="translate(-11.64 -0.004)" fill="#d6ab49"/><path d="M49.526,23.141c-.225-.005-.45-.009-.675,0-.152,0-.222-.048-.222-.21s.015-.273.218-.276a4.1,4.1,0,0,0,.558-.06c.087-.013.164-.059.144-.17-.018-.094-.092-.116-.171-.1a14.223,14.223,0,0,1-1.767.121c-.09,0-.175.037-.168.146s.105.117.19.118c.169,0,.338.01.507,0s.215.053.213.21-.04.231-.206.224-.356-.009-.534,0c-.119.007-.311-.05-.308.141,0,.169.182.117.294.124a2.951,2.951,0,0,0,.45,0c.229-.022.314.057.308.3-.005.209-.067.271-.275.273-.507.005-.552.063-.56.577,0,.168,0,.337,0,.506a.286.286,0,0,0,.32.31h.675v0H48.8c.709,0,.709,0,.709-.708,0-.654-.011-.676-.646-.688-.219,0-.241-.108-.238-.28s0-.3.228-.289.45,0,.675,0c.085,0,.181-.017.177-.133s-.1-.126-.183-.128m-.507,1.107a.177.177,0,0,1,.2.2c0,.009,0,.019,0,.028.048.61.048.61-.719.61h-.14c-.622-.014-.561.123-.564-.6,0-.165.071-.242.234-.242.328,0,.656,0,.984,0" transform="translate(-15.442 -7.285)" fill="#d6ab49"/><path d="M29.77,23.039c0-.249-.08-.374-.34-.348-.163.017-.227-.05-.181-.213.026-.091.059-.205-.069-.232-.145-.03-.191.083-.2.207-.011.148-.059.256-.237.238-.263-.026-.311.126-.307.347.007.524,0,1.048,0,1.573,0,.709-.069.624.632.631h.309c.363,0,.387-.026.388-.379,0-.609-.007-1.217,0-1.825m-1.051.047a.135.135,0,0,1,.129-.127,1.265,1.265,0,0,1,.167-.011c.479-.012.479-.011.478.468,0,.075,0,.15,0,.224.008.148-.043.236-.207.218-.181-.022-.432.092-.529-.06-.128-.2-.042-.471-.039-.713m.362,1.938c-.372,0-.372,0-.372-.511.027-.11-.074-.3.068-.367a1.155,1.155,0,0,1,.636-.015c.076.011.079.095.08.162,0,.1,0,.205,0,.308,0,.423,0,.423-.414.422" transform="translate(-9.282 -7.261)" fill="#d6ab49"/></g></svg>