<svg xmlns="http://www.w3.org/2000/svg" width="25" height="20.247" viewBox="0 0 25 20.247"><path d="M19.873-13.2a.821.821,0,0,0,1.562.5A3.215,3.215,0,0,0,17.7-16.841a.819.819,0,0,0,.347,1.6A1.582,1.582,0,0,1,19.873-13.2ZM10.488-.063c9.985,0,14.912-8.442,8.286-10.508-.352-.107-.586-.181-.405-.64,1.294-3.33-1.685-4.15-5.566-2.51,0-.015-.8.347-.6-.293,1.445-4.648-3.608-4.59-8.477.278C1.367-11.377,0-8.882,0-6.719,0-2.573,5.3-.063,10.488-.063ZM17.5-7.207c.264,2.72-2.861,5.244-7,5.664S2.788-3.008,2.524-5.728s2.861-5.244,7-5.664S17.241-9.927,17.5-7.207Zm-.518-12.954a.957.957,0,0,0,.405,1.87,4.7,4.7,0,0,1,5.454,6.055.959.959,0,0,0,1.826.586A6.617,6.617,0,0,0,16.987-20.161ZM13.154-4.976A3.082,3.082,0,0,0,10.908-9.3a4.533,4.533,0,0,0-5.049,2.2,3.078,3.078,0,0,0,1.968,4.38A4.462,4.462,0,0,0,13.154-4.976ZM8.94-6.44a1.107,1.107,0,0,1,.474,1.66A1.578,1.578,0,0,1,7.5-4.15a1.1,1.1,0,0,1-.42-1.66A1.578,1.578,0,0,1,8.94-6.44Zm1.592-.654a.427.427,0,0,1,.2.63.6.6,0,0,1-.713.264.424.424,0,0,1-.181-.63A.617.617,0,0,1,10.532-7.095Z" transform="translate(0 20.311)" fill="#d6ab49"/></svg>