<svg xmlns="http://www.w3.org/2000/svg" width="23.914" height="23.914" viewBox="0 0 23.914 23.914"><path d="M26.306-16.6a2.188,2.188,0,0,0-2.2-2.2H4.59a2.188,2.188,0,0,0-2.2,2.2V2.917a2.188,2.188,0,0,0,2.2,2.2H24.109a2.188,2.188,0,0,0,2.2-2.2ZM23.914.964a1.751,1.751,0,0,1-1.758,1.758H6.531A1.751,1.751,0,0,1,4.773.964V-14.648a1.751,1.751,0,0,1,1.758-1.758H22.156a1.751,1.751,0,0,1,1.758,1.758ZM12.341-9.753a1.754,1.754,0,0,1,1.917-1.709c1.1,0,1.843.623,1.843,1.5s-.378,1.343-1.66,2.1a3,3,0,0,0-1.77,3.223l.012.5h2.661v-.513c0-.916.366-1.379,1.7-2.136a3.581,3.581,0,0,0,2.112-3.259c0-2.258-1.868-3.8-4.724-3.8-3.04,0-4.773,1.648-4.834,4.089ZM14.124.549a1.62,1.62,0,0,0,1.819-1.672A1.614,1.614,0,0,0,14.124-2.8a1.624,1.624,0,0,0-1.831,1.672A1.63,1.63,0,0,0,14.124.549Z" transform="translate(-2.393 18.799)" fill="#d6ab49"/></svg>