<svg xmlns="http://www.w3.org/2000/svg" width="28.559" height="15.387" viewBox="0 0 28.559 15.387"><path d="M18.454,10.7c.117.091.222.179.335.26a6.311,6.311,0,0,0,2.769,1.1,5.466,5.466,0,0,0,1.215.067,2.339,2.339,0,0,0,1.088-.315,1.724,1.724,0,0,0,.354-.285,1.024,1.024,0,0,0,.005-1.425,2.334,2.334,0,0,0-.868-.583c-.524-.213-1.054-.412-1.588-.6A16.618,16.618,0,0,1,19.6,8.04a5.214,5.214,0,0,1-1.347-.97,3.411,3.411,0,0,1-.97-2.439A4.057,4.057,0,0,1,19.055,1.2,6.123,6.123,0,0,1,21.713.106a8.261,8.261,0,0,1,3.355.156,8.675,8.675,0,0,1,2.47.961c.118.071.23.15.351.229L26.082,4.235,26,4.185a5.291,5.291,0,0,0-2.086-.874,3.545,3.545,0,0,0-1.964.172,1.527,1.527,0,0,0-.533.358.891.891,0,0,0,.054,1.336,2.885,2.885,0,0,0,.91.5c.6.217,1.2.419,1.8.626a11.17,11.17,0,0,1,2.054.9A4.608,4.608,0,0,1,27.61,8.388a3.784,3.784,0,0,1,.737,1.977A4,4,0,0,1,26.7,14.1a6.249,6.249,0,0,1-2.648,1.141A9.023,9.023,0,0,1,19.818,15a10.229,10.229,0,0,1-3.093-1.468c-.036-.025-.072-.052-.107-.078a.159.159,0,0,1-.015-.022L18.454,10.7" transform="translate(-5.962)" fill="#d6ab49"/><path d="M3.866,15.241H.006C0,15.212,0,15.182,0,15.154Q0,7.864,0,.574C0,.5.019.477.1.477q1.84,0,3.681,0c.071,0,.094.016.094.091q0,7.294,0,14.587c0,.027,0,.054,0,.086" transform="translate(0 -0.171)" fill="#d6ab49"/><path d="M38.977,21.065a2.623,2.623,0,1,1,.033-5.247,2.623,2.623,0,1,1-.033,5.247" transform="translate(-13.06 -5.68)" fill="#d6ab49"/><path d="M10.346,5.248A2.581,2.581,0,0,1,7.738,2.629a2.625,2.625,0,1,1,5.25.02,2.6,2.6,0,0,1-2.643,2.6" transform="translate(-2.779 -0.001)" fill="#d6ab49"/></svg>