<svg xmlns="http://www.w3.org/2000/svg" width="21.875" height="21.875" viewBox="0 0 21.875 21.875"><path d="M13.286-11.9a.154.154,0,0,0-.161-.151h-.557a.154.154,0,0,0-.156.156v2.061L10.82-11.987a.147.147,0,0,0-.127-.068h-.552a.154.154,0,0,0-.156.156v3.472a.154.154,0,0,0,.156.156H10.7a.154.154,0,0,0,.156-.156v-2.061L12.446-8.34a.161.161,0,0,0,.127.063h.557a.154.154,0,0,0,.156-.156Zm-4-.156H8.726a.154.154,0,0,0-.156.156v3.472a.154.154,0,0,0,.156.156h.557a.154.154,0,0,0,.156-.156V-11.9A.157.157,0,0,0,9.282-12.061ZM7.939-9.15H6.421V-11.9a.154.154,0,0,0-.156-.156H5.708a.154.154,0,0,0-.156.156v3.472a.144.144,0,0,0,.044.107.165.165,0,0,0,.107.044H7.935a.154.154,0,0,0,.156-.156v-.557A.156.156,0,0,0,7.939-9.15Zm8.276-2.91H13.984a.157.157,0,0,0-.156.156v3.472a.157.157,0,0,0,.156.156h2.231a.154.154,0,0,0,.156-.156v-.557a.154.154,0,0,0-.156-.156H14.7v-.586h1.519a.154.154,0,0,0,.156-.156v-.562a.154.154,0,0,0-.156-.156H14.7v-.586h1.519a.154.154,0,0,0,.156-.156V-11.9A.164.164,0,0,0,16.216-12.061Zm5.659-4.263a3.977,3.977,0,0,0-3.955-3.989H3.989A3.98,3.98,0,0,0,0-16.357V-2.427A3.98,3.98,0,0,0,3.955,1.562H17.886a3.977,3.977,0,0,0,3.989-3.955Zm-3.008,5.986a5.769,5.769,0,0,1-1.7,3.979A25.736,25.736,0,0,1,10.9-1.733c-.85.356-.723-.23-.688-.43.21-1.255.317-1.6-.615-1.8-3.828-.508-6.66-3.184-6.66-6.377C2.939-13.9,6.514-16.8,10.9-16.8S18.867-13.9,18.867-10.337Z" transform="translate(0 20.313)" fill="#d6ab49"/></svg>