<svg xmlns="http://www.w3.org/2000/svg" width="26.855" height="21.88" viewBox="0 0 26.855 21.88"><path d="M18.809-13.691a7.133,7.133,0,0,1,.918.054c-.811-3.828-4.917-6.675-9.585-6.675-5.234,0-9.507,3.555-9.507,8.076,0,2.607,1.431,4.761,3.8,6.426L3.5-2.949l3.32-1.665a16.3,16.3,0,0,0,3.33.474c.3,0,.591-.015.894-.039a6.717,6.717,0,0,1-.3-1.992A7.778,7.778,0,0,1,18.809-13.691Zm-5.1-2.583a1.12,1.12,0,0,1,1.182,1.191A1.117,1.117,0,0,1,13.706-13.9a1.328,1.328,0,0,1-1.431-1.182A1.334,1.334,0,0,1,13.706-16.274ZM7.046-13.9a1.337,1.337,0,0,1-1.431-1.182,1.334,1.334,0,0,1,1.431-1.191,1.12,1.12,0,0,1,1.191,1.191A1.115,1.115,0,0,1,7.046-13.9ZM27.49-6.279c0-3.8-3.8-6.9-8.076-6.9-4.526,0-8.076,3.1-8.076,6.9S14.893.62,19.414.62A12.36,12.36,0,0,0,22.275.137l2.607,1.431L24.16-.806C26.074-2.241,27.49-4.141,27.49-6.279Zm-10.7-1.2a1.016,1.016,0,0,1-.942-.957,1.013,1.013,0,0,1,.942-.942,1.083,1.083,0,0,1,1.191.942A1.083,1.083,0,0,1,16.792-7.476Zm5.229,0a1.016,1.016,0,0,1-.942-.957,1.013,1.013,0,0,1,.942-.942,1.093,1.093,0,0,1,1.191.942A1.086,1.086,0,0,1,22.021-7.476Z" transform="translate(-0.635 20.313)" fill="#d6ab49"/></svg>