<svg xmlns="http://www.w3.org/2000/svg" width="26.667" height="18.75" viewBox="0 0 26.667 18.75"><path d="M26.839-15.816a3.351,3.351,0,0,0-2.358-2.373c-2.08-.561-10.418-.561-10.418-.561s-8.339,0-10.418.561a3.351,3.351,0,0,0-2.358,2.373,35.149,35.149,0,0,0-.557,6.46A35.15,35.15,0,0,0,1.286-2.9,3.3,3.3,0,0,0,3.644-.561C5.724,0,14.062,0,14.062,0S22.4,0,24.481-.561A3.3,3.3,0,0,0,26.839-2.9a35.15,35.15,0,0,0,.557-6.46A35.15,35.15,0,0,0,26.839-15.816ZM11.335-5.391v-7.93L18.3-9.356Z" transform="translate(-0.729 18.75)" fill="#d6ab49"/></svg>