<svg xmlns="http://www.w3.org/2000/svg" width="271.843" height="35.276" viewBox="0 0 271.843 35.276"><g transform="translate(-21.019 -20.152)"><path d="M87.5,20.656a1,1,0,0,1,1.571-.226,6.524,6.524,0,0,1,1.872,2.981,8.56,8.56,0,0,1-.271,6.736,9.265,9.265,0,0,1-2.35,3A71.846,71.846,0,0,1,70.908,43.878a1.788,1.788,0,0,1-1.029.2A5.3,5.3,0,0,1,71.021,42.8a91.687,91.687,0,0,0,9.008-10.823A110.019,110.019,0,0,0,87.5,20.656Z" transform="translate(-40.367)" fill="#80ba27"/><g transform="translate(21.019 22.404)"><path d="M80.942,34.625a18.572,18.572,0,0,1,9.806-1.384,16.147,16.147,0,0,1,6.5,2.046,19.129,19.129,0,0,1,3.55,2.745c-1.483,1.752-3,3.48-4.507,5.208A12.282,12.282,0,0,0,88.8,39.656a8.892,8.892,0,0,0-7.443,3.079c-3.64,4.2-3.179,11.356,1.159,14.9a9.439,9.439,0,0,0,8.332,1.649,13.4,13.4,0,0,0,5.667-3.424c1.488,1.519,3,3.018,4.5,4.525a17.61,17.61,0,0,1-4.947,3.955,16.748,16.748,0,0,1-7.951,1.773,16.305,16.305,0,0,1-9.877-3,16.067,16.067,0,0,1-6.418-10.2,17.668,17.668,0,0,1,1.161-10.265,15.853,15.853,0,0,1,7.956-8.027Zm175.269-1.243c1.088.005,2.175,0,3.265,0q0,16.012,0,32.028c-1.09.005-2.18,0-3.27,0-.005-1.175.014-2.35-.011-3.524a13.129,13.129,0,0,1-2.771,2.456,10.369,10.369,0,0,1-8.836,1.024,11,11,0,0,1-6.235-5.191,12.75,12.75,0,0,1-1.432-7.461,11.692,11.692,0,0,1,4.914-8.63,10.555,10.555,0,0,1,14.369,2c.007-4.237,0-8.473,0-12.707m-9.83,12.17a7.363,7.363,0,0,0-4.045,2.343,9.9,9.9,0,0,0-1.86,8.161,8.178,8.178,0,0,0,3.209,5.218,7.609,7.609,0,0,0,5.769,1.311,8.288,8.288,0,0,0,5.323-3.468,9.1,9.1,0,0,0-.523-10.869,8.139,8.139,0,0,0-7.872-2.7Zm38.5-11.968a3.057,3.057,0,0,1,1.98-.2c-.021.306-.047.614-.068.92-.452-.017-1.113-.287-1.391.216.028.53.725.555,1.085.8a1.288,1.288,0,0,1,.259,2.076,2.616,2.616,0,0,1-2.347.41c.018-.33.036-.659.052-.989a2.921,2.921,0,0,0,1.3.108.412.412,0,0,0,.149-.652c-.431-.289-1-.355-1.354-.753a1.326,1.326,0,0,1,.339-1.933Zm3.193-.2c.4,0,.81,0,1.22.009.217.747.468,1.485.688,2.232l.174.087c.353-.734.511-1.561.8-2.329q.59,0,1.184.007c.25,1.479.471,2.962.718,4.443-.384,0-.761,0-1.14-.016-.1-.72-.2-1.439-.33-2.155l-.188.106c-.231.681-.414,1.378-.631,2.063l-1.017,0a23.124,23.124,0,0,1-.678-2.312c.205-.362-.363-.365-.158,0-.031.774-.191,1.537-.269,2.308l-1.074.007c.22-1.486.474-2.967.7-4.454ZM178.645,35.7a16.086,16.086,0,0,1,9.6-1.377,14.982,14.982,0,0,1,6.468,2.55,26.873,26.873,0,0,1,3.117,2.571c-.8.847-1.608,1.693-2.437,2.514a23.26,23.26,0,0,0-2.934-2.486,12.564,12.564,0,0,0-9.053-1.954,11.343,11.343,0,0,0-7.209,4.424,12.92,12.92,0,0,0-2.489,6.965,13.568,13.568,0,0,0,2.488,9.112,11.515,11.515,0,0,0,7.722,4.589,12.528,12.528,0,0,0,6.653-.933A17.212,17.212,0,0,0,195.6,57.83c.812.755,1.585,1.552,2.4,2.308a19.973,19.973,0,0,1-6.049,4.448,16.4,16.4,0,0,1-8.493,1.224,14.944,14.944,0,0,1-9.253-4.688,16.753,16.753,0,0,1-3.1-16.893,15.385,15.385,0,0,1,7.541-8.53Zm85.512-1.488c1.264-.014,2.527-.009,3.793,0,.007,1.352,0,2.7,0,4.057-1.267,0-2.534.014-3.8-.009C264.155,36.908,264.145,35.559,264.157,34.212Zm10.254,1.559c1.105,0,2.211-.005,3.317,0q0,3.439,0,6.877,3.778.005,7.558,0c0,1.041,0,2.081,0,3.122q-3.781,0-7.562,0,0,6.777,0,13.552a3.1,3.1,0,0,0,1.034,2.5,5,5,0,0,0,3.683.666,11.719,11.719,0,0,0,2.753-.958c0,1.1.007,2.194,0,3.291a8.654,8.654,0,0,1-4.127.942,6.314,6.314,0,0,1-5.444-2.371,7.045,7.045,0,0,1-1.215-4.233q-.008-6.691,0-13.383c-1.026-.017-2.053-.005-3.079-.007V42.65c1.024,0,2.051.007,3.077-.005Q274.4,39.207,274.411,35.771ZM137.578,41.655a7.946,7.946,0,0,1,4.368-1.015c.047,2.439.014,4.878.017,7.317a7.39,7.39,0,0,0-5.679,2.008c-1.613,1.705-2.039,4.146-2.1,6.409-.011,3.072,0,6.145,0,9.218q-3.476,0-6.95,0,.005-12.239,0-24.475,3.471.005,6.943,0c.014,1.568-.021,3.138.021,4.706a9.313,9.313,0,0,1,3.383-4.167Zm9.9,1.257a11.665,11.665,0,0,1,7.21-2.232,11.227,11.227,0,0,1,7.615,2.7,12.86,12.86,0,0,1,3.93,7.808,16.314,16.314,0,0,1,.085,4.6c-5.649-.021-11.3,0-16.948-.01a5.913,5.913,0,0,0,2.472,3.816,7.2,7.2,0,0,0,4.965.8,8.547,8.547,0,0,0,4.4-2.392c1.354,1.164,2.682,2.362,4.022,3.544a11.874,11.874,0,0,1-7.08,4.3,14.381,14.381,0,0,1-9.524-1.328,11.7,11.7,0,0,1-5.333-6.134,14.406,14.406,0,0,1-.563-7.937,12.462,12.462,0,0,1,4.745-7.542m3.732,4.617a7.087,7.087,0,0,0-1.945,3.885c3.457,0,6.913,0,10.371,0a5.806,5.806,0,0,0-2.96-4.671A5.034,5.034,0,0,0,151.206,47.529Zm-47.125-4.7a22.241,22.241,0,0,1,11.69-1.862,9.855,9.855,0,0,1,6.291,2.846,9.149,9.149,0,0,1,2.168,4.563A26.844,26.844,0,0,1,124.5,53.6q0,6,0,11.994c-2.255-.005-4.509.014-6.764-.011.01-.82.017-1.643,0-2.463-.546.4-.993.915-1.563,1.278a10.629,10.629,0,0,1-7.972,1.436,7.524,7.524,0,0,1-5.455-3.894,8.639,8.639,0,0,1-.65-4.876,6.7,6.7,0,0,1,2.88-4.683,12.213,12.213,0,0,1,6.786-1.731,17.172,17.172,0,0,1,6.034.98,4.288,4.288,0,0,0-1.5-3.8,7.438,7.438,0,0,0-5.043-.945,18.778,18.778,0,0,0-5.415,1.279c-.588-1.775-1.165-3.553-1.747-5.33m7.944,12.126a4.3,4.3,0,0,0-2.569,1.248,2.975,2.975,0,0,0,.335,4.215,5.343,5.343,0,0,0,4.052.668,4.784,4.784,0,0,0,3.743-2.63,6.451,6.451,0,0,0,.281-2.734A10.994,10.994,0,0,0,112.025,54.957Zm106.714-11.17a10.247,10.247,0,0,1,12.224.81,12.155,12.155,0,0,1,3.8,8.476,8.062,8.062,0,0,1-.12,2.409q-8.847-.01-17.692,0a8.386,8.386,0,0,0,3.689,6.06,8.073,8.073,0,0,0,5.505,1.078,9.649,9.649,0,0,0,5.928-3.534c.826.664,1.6,1.392,2.4,2.09a16.878,16.878,0,0,1-3.821,3.223,10.78,10.78,0,0,1-5.9,1.516,10.89,10.89,0,0,1-7.075-2.446,11.575,11.575,0,0,1-4.123-7.76,13.831,13.831,0,0,1,.556-5.8,11.446,11.446,0,0,1,4.629-6.115m2.31,2.3a8.518,8.518,0,0,0-4.092,6.326q7.165,0,14.334,0a10.041,10.041,0,0,0-1.438-4.123,6.5,6.5,0,0,0-3.937-2.835,7.029,7.029,0,0,0-4.867.629Zm-9.931-3.656a14.59,14.59,0,0,1,2.465-.1c0,1.165.009,2.331-.005,3.5a8.774,8.774,0,0,0-5.983,1.736,10.283,10.283,0,0,0-3.565,7.96c-.01,3.3,0,6.594,0,9.889-1.09,0-2.18,0-3.268,0q0-11.384,0-22.768c1.09,0,2.18,0,3.27,0,0,1.406-.019,2.813.011,4.219a8.644,8.644,0,0,0,.935-1.046,10.177,10.177,0,0,1,6.145-3.39Zm53.291.217c1.09,0,2.178,0,3.27,0q0,11.384,0,22.768c-1.09,0-2.18,0-3.268,0q0-11.381,0-22.763ZM51.678,44.3ZM58.69,48c.033-.082.1-.243.136-.325,0,.075.009.226.012.3L58.69,48Zm3.378,5.3a1.762,1.762,0,0,1,2.18.375,3.8,3.8,0,0,1,.113,2.806,11.275,11.275,0,0,1-3.744,5.768,13.1,13.1,0,0,1-5.507,2.248,49.291,49.291,0,0,1-8.014.714,76.352,76.352,0,0,1-13.651-.97,42.954,42.954,0,0,1-11.779-3.522,1.554,1.554,0,0,1-.647-.527c.445-.363,1.036-.16,1.554-.162a96.841,96.841,0,0,0,16-.706,96.8,96.8,0,0,0,10.8-2.173A122.227,122.227,0,0,0,62.067,53.3ZM49.689,54.565l.327-.136-.026.151-.167.069Zm-1.045.341.327-.139-.024.148Zm-1.213.362.32-.143-.021.148c-.075,0-.224,0-.3-.005ZM46.2,55.6l.329-.127-.03.149-.167.064L46.2,55.6Zm-.687.177.323-.118-.03.146Zm-.692.2.316-.127-.024.148ZM28.546,57.138l.16-.08.141.076-.318.155Z" transform="translate(-21.019 -33.105)" fill="#006a5c"/></g><g transform="translate(25.73 24.546)"><path d="M311.111,45.7c-.205-.365.363-.362.158,0ZM78.737,51.146a1.763,1.763,0,0,1,1.646-.325,2.921,2.921,0,0,1,1.2,2.162,10.529,10.529,0,0,1-.365,4.878c-.035.082-.1.243-.136.325.075.236-.089.459-.156.676a6.824,6.824,0,0,1-1.105,1.872c-1.924,2.055-4.633,3.049-7.247,3.9l-.165-.021-.327.136a.9.9,0,0,1-.718.2l-.327.139a1.328,1.328,0,0,1-.893.219l-.32.143a1.383,1.383,0,0,1-.9.2l-.329.127-.163.12-.2-.061-.323.118-.181.127-.195-.057-.316.127a7.356,7.356,0,0,1-1,.273,102.01,102.01,0,0,1-16.2,2.328,10.9,10.9,0,0,1-1.9.009l.007-.4a23.523,23.523,0,0,1,2.792-.89l.318-.155a7.986,7.986,0,0,1,1.25-.527,91.124,91.124,0,0,0,10.863-5.133A114.2,114.2,0,0,0,74.07,54.483a.339.339,0,0,0,.033-.024q2.313-1.663,4.634-3.313Z" transform="translate(-48.122 -45.432)" fill="#019e93"/></g></g></svg>