<svg xmlns="http://www.w3.org/2000/svg" width="206.171" height="78.769" viewBox="0 0 206.171 78.769"><path d="M205.153,61.111c-9.136,13.7-13.538,15.09-31.816,15.09H155.4c-5.076,0-6.77-1.712-6.77-5.138V12.63c0-7.92.679-11.988,12.187-11.988V0H126.969V.642c7.616,0,10.477,1.791,11.55,5.292.025,2.953-1.936,7.248-4.824,13.222L110.507,67,81.4,10.811C77.848,3.961,79.879,1.07,91.048.642V0H56.864V.642C65.323,1.07,68.2,4.494,72.939,13.7l5.078,9.739L52.462,67.747l-28.6-56.936C20.477,3.961,22.679,1.07,34.184.642V0H0V.642C7.278,1.07,10.831,4.71,15.4,13.7L48.063,78.769h1.354L79.54,26.541l27.078,52.228h1.351L136.909,19.8c.779-1.595,1.523-3.068,2.247-4.444V65.283c0,7.92-.677,11.988-12.187,11.988v.642h75.477l3.725-16.8Z" fill="#fff" opacity="0.25"/></svg>