<svg xmlns="http://www.w3.org/2000/svg" xmlns:xlink="http://www.w3.org/1999/xlink" width="161.896" height="89.071" viewBox="0 0 161.896 89.071"><defs><clipPath id="a"><rect width="161.896" height="89.071" fill="#fff"/></clipPath></defs><g transform="translate(0 0)" clip-path="url(#a)"><path d="M161.1,47.988c-7.174,10.758-10.631,11.85-24.984,11.85H122.03c-3.986,0-5.316-1.344-5.316-4.035V9.918c0-6.219.533-9.414,9.57-9.414V0H99.7V.5c5.981,0,8.228,1.407,9.07,4.156.02,2.319-1.52,5.692-3.788,10.383L86.777,52.611,63.922,8.489C61.131,3.111,62.726.84,71.5.5V0H44.653V.5c6.643.336,8.9,3.025,12.624,10.254l3.988,7.647L41.2,53.2,18.739,8.489C16.08,3.111,17.809.84,26.844.5V0H0V.5C5.715.84,8.505,3.7,12.094,10.758l25.648,51.1h1.063L62.46,20.842,83.724,61.854h1.061L107.51,15.549c.612-1.252,1.2-2.409,1.764-3.49V51.265c0,6.219-.531,9.414-9.57,9.414v.5h59.269L161.9,47.988Z" transform="translate(0 -0.001)" fill="#d6ab49"/><path d="M1.212,40.665a.2.2,0,0,1,.211-.281h.492a.241.241,0,0,1,.211.164l1.628,6.069H3.8l1.956-6.221a.2.2,0,0,1,.2-.129h.211a.211.211,0,0,1,.2.129l1.991,6.221h.047L10,40.547a.241.241,0,0,1,.209-.164H10.7a.2.2,0,0,1,.211.281L8.7,48.539a.225.225,0,0,1-.211.164H8.3a.242.242,0,0,1-.2-.129L6.075,42.235H6.016L4.023,48.574a.242.242,0,0,1-.2.129H3.639a.223.223,0,0,1-.211-.164Z" transform="translate(1.144 38.406)" fill="#fff"/><rect width="0.914" height="8.202" rx="0.114" transform="translate(17.762 78.788)" fill="#fff"/><path d="M12.883,40.548a.223.223,0,0,1,.223-.223h.457a.229.229,0,0,1,.221.223v7.194h3.374a.224.224,0,0,1,.225.223v.34a.224.224,0,0,1-.225.223H13.106a.223.223,0,0,1-.223-.223Z" transform="translate(12.288 38.462)" fill="#fff"/><path d="M17.929,40.548a.223.223,0,0,1,.223-.223h.457a.229.229,0,0,1,.221.223v7.194H22.2a.224.224,0,0,1,.225.223v.34a.224.224,0,0,1-.225.223H18.152a.223.223,0,0,1-.223-.223Z" transform="translate(17.101 38.462)" fill="#fff"/><rect width="0.914" height="8.202" rx="0.114" transform="translate(44.888 78.788)" fill="#fff"/><path d="M26.2,48.28l3.562-7.886a.211.211,0,0,1,.2-.129h.117a.216.216,0,0,1,.2.129l3.538,7.886a.208.208,0,0,1-.2.3H33.15a.216.216,0,0,1-.2-.129l-.868-1.932h-4.16l-.854,1.932a.22.22,0,0,1-.2.129H26.4a.207.207,0,0,1-.2-.3M31.767,45.8c-.574-1.278-1.137-2.565-1.71-3.843h-.094L28.252,45.8Z" transform="translate(24.97 38.405)" fill="#fff"/><path d="M34.06,40.429a.225.225,0,0,1,.211-.164h.188a.223.223,0,0,1,.2.129l2.319,6.455h.059l2.284-6.455a.226.226,0,0,1,.2-.129h.188a.229.229,0,0,1,.213.164L41.43,48.3c.035.164-.035.281-.211.281H40.75a.241.241,0,0,1-.211-.164L39.5,42.385h-.047l-2.155,6.188a.238.238,0,0,1-.2.129h-.211a.238.238,0,0,1-.2-.129l-2.179-6.188h-.047l-1.02,6.035a.228.228,0,0,1-.211.164h-.469c-.176,0-.246-.117-.209-.281Z" transform="translate(31.038 38.405)" fill="#fff"/><path d="M43.548,40.548a.223.223,0,0,1,.223-.223h.457a.229.229,0,0,1,.221.223v7.194h3.374a.224.224,0,0,1,.225.223v.34a.224.224,0,0,1-.225.223H43.771a.223.223,0,0,1-.223-.223Z" transform="translate(41.537 38.462)" fill="#fff"/><path d="M48.216,48.28l3.562-7.886a.212.212,0,0,1,.2-.129h.117a.216.216,0,0,1,.2.129l3.538,7.886a.208.208,0,0,1-.2.3h-.469a.216.216,0,0,1-.2-.129L54.1,46.523h-4.16l-.854,1.932a.22.22,0,0,1-.2.129h-.471a.207.207,0,0,1-.2-.3M53.781,45.8c-.574-1.278-1.137-2.565-1.71-3.843h-.094L50.266,45.8Z" transform="translate(45.968 38.405)" fill="#fff"/><path d="M58.735,40.265a4.218,4.218,0,1,1-4.207,4.23,4.211,4.211,0,0,1,4.207-4.23m0,7.616A3.4,3.4,0,1,0,55.349,44.5a3.4,3.4,0,0,0,3.386,3.386" transform="translate(52.011 38.405)" fill="#fff"/><path d="M62.1,43.9c.373,0,.774.211.774,1.055a3.231,3.231,0,0,1-.985,2.167c-.117.106-.211.094-.281.023l-.164-.164c-.059-.059-.047-.176.07-.281a2,2,0,0,0,.727-1.475.571.571,0,0,1-.141.012.676.676,0,0,1-.668-.668A.668.668,0,0,1,62.1,43.9" transform="translate(58.575 41.872)" fill="#fff"/><path d="M69.85,40.429a.225.225,0,0,1,.211-.164h.188a.223.223,0,0,1,.2.129l2.319,6.455h.059l2.284-6.455a.226.226,0,0,1,.2-.129H75.5a.229.229,0,0,1,.213.164L77.22,48.3c.035.164-.035.281-.211.281H76.54a.241.241,0,0,1-.211-.164l-1.043-6.035h-.047l-2.155,6.188a.238.238,0,0,1-.2.129h-.211a.238.238,0,0,1-.2-.129L70.3,42.385h-.047l-1.02,6.035a.228.228,0,0,1-.211.164h-.469c-.176,0-.246-.117-.209-.281Z" transform="translate(65.175 38.405)" fill="#fff"/><path d="M75.906,40.549a.22.22,0,0,1,.211-.223h2.624a4.1,4.1,0,1,1,0,8.2H76.117a.222.222,0,0,1-.211-.223Zm2.647,7.171a3.3,3.3,0,1,0,0-6.6H76.8v6.6Z" transform="translate(72.402 38.463)" fill="#fff"/></g></svg>