<svg xmlns="http://www.w3.org/2000/svg" width="89.131" height="34.053" viewBox="0 0 89.131 34.053"><path d="M88.692,26.419c-3.95,5.923-5.853,6.524-13.754,6.524H67.183c-2.194,0-2.927-.74-2.927-2.221V5.46c0-3.424.294-5.183,5.269-5.183V0H54.891V.278c3.293,0,4.53.774,4.993,2.288.011,1.277-.837,3.133-2.086,5.716L47.774,28.964,35.191,4.674c-1.536-2.961-.658-4.211,4.17-4.4V0H24.583V.278c3.657.185,4.9,1.665,6.95,5.645l2.2,4.21L22.68,29.288,10.317,4.674C8.853,1.712,9.8.463,14.779.278V0H0V.278C3.146.463,4.682,2.036,6.658,5.923l14.12,28.131h.585L34.387,11.474,46.093,34.053h.584L59.188,8.56c.337-.69.658-1.326.971-1.921V28.223c0,3.424-.293,5.183-5.269,5.183v.278h32.63l1.61-7.264Z" fill="#fff" opacity="0.8" style="mix-blend-mode:overlay;isolation:isolate"/></svg>