<svg xmlns="http://www.w3.org/2000/svg" xmlns:xlink="http://www.w3.org/1999/xlink" width="206.168" height="113.429" viewBox="0 0 206.168 113.429"><defs><clipPath id="a"><rect width="206.168" height="113.429"/></clipPath></defs><g transform="translate(0 0)"><g transform="translate(0 0)" clip-path="url(#a)"><path d="M205.153,61.111c-9.136,13.7-13.538,15.09-31.816,15.09H155.4c-5.076,0-6.77-1.712-6.77-5.138V12.63c0-7.92.679-11.988,12.187-11.988V0H126.969V.642c7.616,0,10.477,1.791,11.55,5.292.025,2.953-1.936,7.248-4.824,13.222L110.507,67,81.4,10.811C77.848,3.961,79.879,1.07,91.048.642V0H56.864V.642C65.323,1.07,68.2,4.494,72.939,13.7l5.078,9.739L52.462,67.747l-28.6-56.936C20.477,3.961,22.679,1.07,34.184.642V0H0V.642C7.278,1.07,10.831,4.71,15.4,13.7L48.063,78.769h1.354L79.54,26.541l27.078,52.228h1.351L136.909,19.8c.779-1.595,1.523-3.068,2.247-4.444V65.283c0,7.92-.677,11.988-12.187,11.988v.642h75.477l3.725-16.8Z" transform="translate(0 -0.001)" fill="#d6ab49"/><path d="M1.215,40.774a.26.26,0,0,1,.269-.358h.627a.307.307,0,0,1,.269.209l2.073,7.728h.062L7.005,40.43a.254.254,0,0,1,.254-.164h.269a.268.268,0,0,1,.254.164l2.535,7.922h.06l2.03-7.728a.306.306,0,0,1,.266-.209H13.3a.26.26,0,0,1,.269.358L10.75,50.8a.287.287,0,0,1-.269.209h-.239a.308.308,0,0,1-.254-.164l-2.58-8.071H7.333L4.8,50.846a.308.308,0,0,1-.254.164H4.305a.284.284,0,0,1-.269-.209Z" transform="translate(1.785 59.92)"/><rect width="1.164" height="10.445" rx="0.114" transform="translate(22.619 100.333)"/><path d="M12.883,40.609a.283.283,0,0,1,.284-.284h.582a.291.291,0,0,1,.281.284V49.77h4.3a.286.286,0,0,1,.286.284v.433a.286.286,0,0,1-.286.284h-5.16a.283.283,0,0,1-.284-.284Z" transform="translate(19.171 60.008)"/><path d="M17.929,40.609a.283.283,0,0,1,.284-.284h.582a.291.291,0,0,1,.281.284V49.77h4.3a.286.286,0,0,1,.286.284v.433a.286.286,0,0,1-.286.284h-5.16a.283.283,0,0,1-.284-.284Z" transform="translate(26.681 60.008)"/><rect width="1.164" height="10.445" rx="0.114" transform="translate(57.163 100.333)"/><path d="M26.209,50.471l4.536-10.042A.269.269,0,0,1,31,40.265h.149a.275.275,0,0,1,.254.164l4.506,10.042a.264.264,0,0,1-.254.388h-.6A.274.274,0,0,1,34.8,50.7l-1.1-2.461H28.4L27.314,50.7a.28.28,0,0,1-.254.164h-.6a.263.263,0,0,1-.251-.388M33.3,47.309c-.732-1.627-1.448-3.267-2.177-4.894H31l-2.18,4.894Z" transform="translate(38.958 59.918)"/><path d="M34.476,40.474a.287.287,0,0,1,.269-.209h.239a.285.285,0,0,1,.254.164L38.19,48.65h.075l2.909-8.221a.287.287,0,0,1,.254-.164h.239a.292.292,0,0,1,.271.209L43.861,50.5c.045.209-.045.358-.269.358h-.6a.307.307,0,0,1-.269-.209L41.4,42.965h-.06l-2.744,7.88a.3.3,0,0,1-.254.164h-.269a.3.3,0,0,1-.254-.164l-2.774-7.88h-.06l-1.3,7.686a.291.291,0,0,1-.269.209h-.6c-.224,0-.313-.149-.266-.358Z" transform="translate(48.424 59.918)"/><path d="M43.548,40.609a.283.283,0,0,1,.284-.284h.582a.291.291,0,0,1,.281.284V49.77h4.3a.286.286,0,0,1,.286.284v.433a.286.286,0,0,1-.286.284h-5.16a.283.283,0,0,1-.284-.284Z" transform="translate(64.805 60.008)"/><path d="M48.223,50.471l4.536-10.042a.269.269,0,0,1,.254-.164h.149a.275.275,0,0,1,.254.164l4.506,10.042a.264.264,0,0,1-.254.388h-.6a.274.274,0,0,1-.254-.164l-1.1-2.461h-5.3L49.328,50.7a.28.28,0,0,1-.254.164h-.6a.263.263,0,0,1-.251-.388m7.086-3.162c-.732-1.627-1.448-3.267-2.177-4.894h-.119l-2.18,4.894Z" transform="translate(71.717 59.918)"/><path d="M59.885,40.265a5.372,5.372,0,1,1-5.357,5.387,5.362,5.362,0,0,1,5.357-5.387m0,9.7a4.327,4.327,0,1,0-4.312-4.312,4.335,4.335,0,0,0,4.312,4.312" transform="translate(81.144 59.918)"/><path d="M62.29,43.9c.475,0,.985.269.985,1.344A4.114,4.114,0,0,1,62.021,48c-.149.134-.269.119-.358.03l-.209-.209c-.075-.075-.06-.224.09-.358a2.545,2.545,0,0,0,.926-1.879.727.727,0,0,1-.179.015.86.86,0,0,1-.851-.851.851.851,0,0,1,.851-.851" transform="translate(91.386 65.328)"/><path d="M70.266,40.474a.287.287,0,0,1,.269-.209h.239a.285.285,0,0,1,.254.164L73.98,48.65h.075l2.909-8.221a.287.287,0,0,1,.254-.164h.239a.292.292,0,0,1,.271.209L79.651,50.5c.045.209-.045.358-.269.358h-.6a.307.307,0,0,1-.269-.209l-1.329-7.686h-.06l-2.744,7.88a.3.3,0,0,1-.254.164h-.269a.3.3,0,0,1-.254-.164l-2.774-7.88h-.06l-1.3,7.686a.291.291,0,0,1-.269.209h-.6c-.224,0-.314-.149-.266-.358Z" transform="translate(101.683 59.918)"/><path d="M75.906,40.61a.281.281,0,0,1,.269-.284h3.342a5.223,5.223,0,1,1,0,10.445H76.175a.282.282,0,0,1-.269-.284Zm3.371,9.131a4.2,4.2,0,1,0,0-8.4H77.041v8.4Z" transform="translate(112.957 60.009)"/></g></g></svg>